<svg id="Capa_1" enable-background="new 0 0 512 512" height="512" viewBox="0 0 512 512" width="512" xmlns="http://www.w3.org/2000/svg"><ellipse cx="34.468" cy="477.532" fill="#efd176" rx="36.297" ry="32.535" transform="matrix(.707 -.707 .707 .707 -327.571 164.238)"/><path d="m194.607 399.362-81.969-81.969-93.426 93.426c-10.75 10.75-10.75 28.178 0 38.927l43.041 43.041c10.749 10.75 28.178 10.75 38.927 0z" fill="#89d47f"/><path d="m118.963 314.773h40.606v115.921h-40.606z" fill="#5ec783" transform="matrix(.707 -.707 .707 .707 -222.773 207.647)"/><path d="m216.78 421.535-126.315-126.315c-18.674-18.674-28.959-43.504-28.959-69.913v-25.609c0-8.852 7.175-16.027 16.027-16.027h47.749c8.852 0 16.027 7.175 16.027 16.027v25.608c0 5.058 2.009 9.908 5.585 13.484l126.315 126.315c3.602 3.602 8.391 5.585 13.484 5.586h25.609c8.852 0 16.027 7.176 16.027 16.027v47.748c0 8.852-7.176 16.027-16.027 16.027h-25.609c-26.223.001-51.371-10.416-69.913-28.958z" fill="#e1b89a"/><path d="m201.611 406.366c-18.991-38.715-23.857-89.026-10.962-123.82l-43.754-43.754c-3.576-3.576-5.585-8.427-5.585-13.484v-25.609c0-8.852-7.176-16.027-16.027-16.027h-47.75c-8.852 0-16.027 7.175-16.027 16.027v25.609c0 26.41 10.285 51.238 28.959 69.913z" fill="#d2996f"/><path d="m290.89 319.101-97.991-97.991c-4.452-4.452-11.669-4.452-16.121 0l-23.783 23.783 114.112 114.112 23.783-23.783c4.452-4.452 4.452-11.669 0-16.121z" fill="#4e5660"/><path d="m509.486 114.6 2.503-87.576c.431-15.094-11.919-27.444-27.013-27.013l-87.576 2.503c-18.204.52-35.124 9.498-45.761 24.281l-147.735 205.32 75.981 75.981 205.32-147.735c14.782-10.637 23.76-27.557 24.281-45.761z" fill="#c6c6c6"/><g fill="#9aa3b1"><path d="m304.532 92.264-100.628 139.851 75.981 75.981 42.132-30.316c-30.281-43.146-33.61-122.79-17.485-185.516z"/><path d="m316.958 202.542c-1.92 0-3.839-.732-5.304-2.197-2.929-2.929-2.929-7.678 0-10.606l102.61-102.61c2.931-2.929 7.679-2.929 10.607 0 2.929 2.929 2.929 7.678 0 10.606l-102.61 102.61c-1.464 1.465-3.384 2.197-5.303 2.197z"/></g></svg>